#!OML:ASF I:\Actors\actors\Patient Classification 2\Patient 1\Session 1\actor1.ASF
:FULLY-SPECIFIED
:DEGREES
87
root -0.659943 18.6808 5.77056 2.51346 -3.36097 -1.80891
lowerback 0.734879 1.43461 -0.152615
upperback -1.61145 1.9085 -0.14723
thorax -2.06253 0.954413 -0.113453
lowerneck -11.6562 -2.60818 -0.829298
upperneck 25.1545 -4.3089 3.02754
head 9.99463 -1.73345 0.684633
rclavicle -1.19908e-014 -1.59028e-015
rhumerus -50.0088 -3.15431 -87.0333
rradius 44.173
rwrist 12.7078
rhand -12.9361 -30.0137
rfingers 7.12502
rthumb 13.1548 -59.5787
lclavicle -1.19908e-014 -1.59028e-015
lhumerus -40.2605 0.657729 90.257
lradius 36.755
lwrist -12.2312
lhand -3.1073 -25.382
lfingers 7.12502
lthumb 22.611 3.3137
rfemur 0 0 0
rtibia 0
rfoot 0 0
rtoes 0
lfemur -3.56198 -6.44171 -12.9123
ltibia 20.8368
lfoot -26.0501 18.4241
ltoes -53.8763
88
root -0.66045 18.6813 5.76965 2.52708 -3.36471 -1.80083
lowerback 0.716242 1.43404 -0.167586
upperback -1.60246 1.90759 -0.143358
thorax -2.04344 0.954246 -0.100421
lowerneck -11.6541 -2.59972 -0.812447
upperneck 25.1357 -4.29017 2.99091
head 9.98572 -1.72763 0.671267
rclavicle -2.00602e-014 1.15295e-014
rhumerus -50.0049 -3.16285 -87.0039
rradius 44.1688
rwrist 12.7655
rhand -10.5616 -29.9953
rfingers 7.12502
rthumb 15.4428 -59.3984
lclavicle -2.00602e-014 1.15295e-014
lhumerus -40.2689 0.624756 90.2876
lradius 36.811
lwrist -12.175
lhand -3.05485 -25.3833
lfingers 7.12502
lthumb 22.6613 3.30626
rfemur 0 0 0
rtibia 0
rfoot 0 0
rtoes 0
lfemur -3.57687 -6.37057 -12.913
ltibia 20.8281
lfoot -26.0234 18.3927
ltoes -53.9863
89
root -0.660768 18.681 5.76865 2.54519 -3.38017 -1.80574
lowerback 0.692496 1.44388 -0.171074
upperback -1.58621 1.92076 -0.142014
thorax -2.01358 0.960905 -0.0964674
lowerneck -11.7042 -2.59694 -0.760537
upperneck 25.1486 -4.28015 2.9213
head 9.99685 -1.72514 0.63864
rclavicle -1.45454e-014 7.95139e-015
rhumerus -50.0106 -3.12349 -86.9967
rradius 44.2202
rwrist 12.7859
rhand -12.8329 -30.1119
rfingers 7.12502
rthumb 13.2543 -59.6705
lclavicle -1.45454e-014 7.95139e-015
lhumerus -40.2672 0.537696 90.3296
lradius 36.8878
lwrist -12.1036
lhand -3.02795 -25.2694
lfingers 7.12502
lthumb 22.6871 3.41695
rfemur 0 0 0
rtibia 0
rfoot 0 0
rtoes 0
lfemur -3.58796 -6.37318 -12.9071
ltibia 20.812
lfoot -26.0354 18.408
ltoes -53.9495
90
root -0.661082 18.6809 5.76695 2.55636 -3.38131 -1.80979
lowerback 0.689913 1.44431 -0.182456
upperback -1.57026 1.92131 -0.134392
thorax -1.99639 0.961423 -0.0819687
lowerneck -11.7725 -2.60269 -0.764374
upperneck 25.2035 -4.29282 2.93212
head 10.0305 -1.72846 0.640562
rclavicle 2.23633e-015 -5.1684e-015
rhumerus -50.0861 -2.9341 -87.0525
rradius 44.4
rwrist 12.6711
rhand -13.5068 -30.1928
rfingers 7.12502
rthumb 12.6046 -59.7925
lclavicle 2.23633e-015 -5.1684e-015
lhumerus -40.2767 0.428759 90.3817
lradius 36.9744
lwrist -12.0251
lhand -3.02658 -25.1007
lfingers 7.12502
lthumb 22.6885 3.58555
rfemur 0 0 0
rtibia 0
rfoot 0 0
rtoes 0
lfemur -3.58891 -6.44099 -12.9028
ltibia 20.7878
lfoot -26.0718 18.4515
ltoes -53.7655
91
root -0.661509 18.6811 5.76483 2.55523 -3.37043 -1.7848
lowerback 0.713004 1.44768 -0.215671
upperback -1.55645 1.92506 -0.14106
thorax -1.99606 0.963745 -0.0707377
lowerneck -11.8189 -2.60806 -0.744278
upperneck 25.233 -4.30125 2.91312
head 10.0494 -1.73155 0.628814
rclavicle -2.27189e-014 2.42517e-014
rhumerus -50.2741 -2.62974 -87.1988
rradius 44.7597
rwrist 12.3689
rhand -12.8796 -30.284
rfingers 7.12502
rthumb 13.2092 -59.8455
lclavicle -2.27189e-014 2.42517e-014
lhumerus -40.2914 0.268362 90.4354
lradius 37.0386
lwrist -11.9588
lhand -3.15789 -24.9358
lfingers 7.12502
lthumb 22.5624 3.7658
rfemur 0 0 0
rtibia 0
rfoot 0 0
rtoes 0
lfemur -3.5849 -6.53934 -12.9333
ltibia 20.761
lfoot -26.1087 18.5157
ltoes -53.699
92
root -0.662125 18.6814 5.7633 2.5459 -3.35456 -1.74673
lowerback 0.749657 1.45269 -0.25383
upperback -1.54299 1.93069 -0.157545
thorax -2.00354 0.966993 -0.0672303
lowerneck -11.8744 -2.60871 -0.700446
upperneck 25.2616 -4.30148 2.86825
head 10.0683 -1.73145 0.604844
rclavicle 3.14173e-015 -1.59028e-015
rhumerus -50.5404 -2.25897 -87.4119
rradius 45.2943
rwrist 11.9779
rhand -11.3864 -30.5729
rfingers 7.12502
rthumb 14.6482 -60.0355
lclavicle 3.14173e-015 -1.59028e-015
lhumerus -40.3513 0.045001 90.5045
lradius 37.1633
lwrist -11.8478
lhand -3.35104 -24.8391
lfingers 7.12502
lthumb 22.377 3.88488
rfemur 0 0 0
rtibia 0
rfoot 0 0
rtoes 0
lfemur -3.57824 -6.58978 -12.9792
ltibia 20.7424
lfoot -26.087 18.5783
ltoes -53.8515
93
root -0.662416 18.6811 5.76364 2.53858 -3.33588 -1.75144
lowerback 0.753357 1.44123 -0.253444
upperback -1.5123 1.91552 -0.154421
thorax -1.97419 0.959415 -0.0634402
lowerneck -11.9738 -2.5999 -0.684777
upperneck 25.3342 -4.30066 2.88546
head 10.114 -1.72529 0.60689
rclavicle -1.7052e-015 9.54166e-015
rhumerus -50.8334 -1.75925 -87.683
rradius 45.9913
rwrist 11.8232
rhand -11.0184 -31.3982
rfingers 7.12502
rthumb 15.0028 -60.8347
lclavicle -1.7052e-015 9.54166e-015
lhumerus -40.5256 -0.291913 90.6353
lradius 37.5268
lwrist -11.5424
lhand -3.39232 -24.7943
lfingers 7.12502
lthumb 22.3374 3.93448
rfemur 0 0 0
rtibia 0
rfoot 0 0
rtoes 0
lfemur -3.5707 -6.57045 -12.9715
ltibia 20.7388
lfoot -26.0193 18.6002
ltoes -53.9647
94
root -0.662232 18.6805 5.76472 2.53877 -3.31717 -1.78992
lowerback 0.724907 1.41304 -0.229652
upperback -1.4621 1.87897 -0.126882
thorax -1.90677 0.941006 -0.0460056
lowerneck -12.0939 -2.56556 -0.646447
upperneck 25.409 -4.25539 2.85109
head 10.1617 -1.70212 0.592183
rclavicle -2.44983e-014 -4.77083e-015
rhumerus -51.2115 -1.0249 -88.072
rradius 46.8538
rwrist 11.5883
rhand -11.6165 -32.3327
rfingers 7.12502
rthumb 14.4265 -61.8113
lclavicle -2.44983e-014 -4.77083e-015
lhumerus -40.7762 -0.700407 90.8232
lradius 38.0897
lwrist -11.1198
lhand -3.25956 -24.6317
lfingers 7.12502
lthumb 22.4648 4.08171
rfemur 0 0 0
rtibia 0
rfoot 0 0
rtoes 0
lfemur -3.57216 -6.54316 -12.9221
ltibia 20.7507
lfoot -26.0241 18.5221
ltoes -53.9006
95
root -0.66208 18.6808 5.76473 2.53086 -3.28623 -1.81586
lowerback 0.712208 1.37881 -0.220174
upperback -1.3976 1.83409 -0.0965227
thorax -1.83407 0.918651 -0.0177522
lowerneck -12.2159 -2.52399 -0.600512
upperneck 25.4624 -4.19251 2.78614
head 10.2008 -1.67395 0.567636
rclavicle -4.23699e-015 1.07344e-014
rhumerus -51.7073 -0.114157 -88.5938
rradius 47.872
rwrist 10.7158
rhand -11.4061 -32.9367
rfingers 7.12502
rthumb 14.6292 -62.4007
lclavicle -4.23699e-015 1.07344e-014
lhumerus -41.1558 -1.28912 91.1106
lradius 38.94
lwrist -10.4656
lhand -3.13058 -24.0751
lfingers 7.12502
lthumb 22.5886 4.62326
rfemur 0 0 0
rtibia 0
rfoot 0 0
rtoes 0
lfemur -3.57161 -6.59737 -12.8962
ltibia 20.7677
lfoot -26.0902 18.467
ltoes -53.8722
96
root -0.661912 18.6809 5.76526 2.52007 -3.26982 -1.85037
lowerback 0.689475 1.37796 -0.173629
upperback -1.31211 1.83398 -0.0884866
thorax -1.73239 0.917981 -0.0335153
lowerneck -12.3178 -2.50809 -0.558199
upperneck 25.4546 -4.17886 2.78265
head 10.2165 -1.66277 0.559594
rclavicle -3.71867e-015 -1.15295e-014
rhumerus -52.3497 0.760601 -89.1651
rradius 49.2062
rwrist 9.56078
rhand -10.9864 -33.7734
rfingers 7.12502
rthumb 15.0336 -63.2076
lclavicle -3.71867e-015 -1.15295e-014
lhumerus -41.7234 -2.29901 91.5627
lradius 40.2042
lwrist -9.31565
lhand -3.02216 -23.0969
lfingers 7.12502
lthumb 22.6927 5.58884
rfemur 0 0 0
rtibia 0
rfoot 0 0
rtoes 0
lfemur -3.56821 -6.62753 -12.8628
ltibia 20.7835
lfoot -26.0944 18.4868
ltoes -53.9455
97
root -0.662002 18.6803 5.76744 2.52015 -3.28581 -1.8561
lowerback 0.63407 1.38883 -0.151422
upperback -1.21605 1.84897 -0.090858
thorax -1.60202 0.925164 -0.0455734
lowerneck -12.3956 -2.49642 -0.538665
upperneck 25.3741 -4.16526 2.78865
head 10.2018 -1.65407 0.559146
rclavicle 4.72611e-014 1.59028e-015
rhumerus -53.1953 1.74341 -89.7994
rradius 50.9066
rwrist 8.32516
rhand -10.7384 -35.0075
rfingers 7.12502
rthumb 15.2725 -64.4236
lclavicle 4.72611e-014 1.59028e-015
lhumerus -42.3635 -3.4338 92.0813
lradius 41.646
lwrist -7.85157
lhand -2.73427 -21.9533
lfingers 7.12502
lthumb 22.969 6.69836
rfemur 0 0 0
rtibia 0
rfoot 0 0
rtoes 0
lfemur -3.56466 -6.61432 -12.8597
ltibia 20.7963
lfoot -26.1046 18.5006
ltoes -53.9663
98
root -0.661858 18.6804 5.76966 2.50504 -3.31225 -1.82741
lowerback 0.607839 1.3924 -0.163588
upperback -1.12857 1.85369 -0.0915949
thorax -1.498 0.927646 -0.0374467
lowerneck -12.4361 -2.49411 -0.563864
upperneck 25.2733 -4.14896 2.77768
head 10.173 -1.65117 0.561142
rclavicle 2.43791e-014 -1.11319e-014
rhumerus -54.1961 2.90079 -90.5274
rradius 52.7486
rwrist 6.94659
rhand -10.6338 -36.0557
rfingers 7.12502
rthumb 15.3732 -65.4642
lclavicle 2.43791e-014 -1.11319e-014
lhumerus -43.0692 -4.51697 92.6168
lradius 43.1872
lwrist -6.20061
lhand -2.2428 -20.6625
lfingers 7.12502
lthumb 23.4405 7.92968
rfemur 0 0 0
rtibia 0
rfoot 0 0
rtoes 0
lfemur -3.53075 -6.63953 -12.9018
ltibia 20.7933
lfoot -26.1563 18.5295
ltoes -53.92
